<svg width="365" height="57" viewBox="0 0 365 57" fill="none" xmlns="http://www.w3.org/2000/svg">
<path d="M32.445 0L0 56.8901H17.1574L32.445 30.1118L47.7327 56.8901H65L32.445 0Z" fill="url(#paint0_linear_9_21)"/>
<path d="M100.584 35.6H88.884L86.652 41H80.676L91.908 15.8H97.668L108.936 41H102.816L100.584 35.6ZM98.748 31.172L94.752 21.524L90.756 31.172H98.748Z" fill="#161616"/>
<path d="M130.315 21.632V41H124.987V38.696C124.243 39.536 123.355 40.184 122.323 40.64C121.291 41.072 120.175 41.288 118.975 41.288C116.431 41.288 114.415 40.556 112.927 39.092C111.439 37.628 110.695 35.456 110.695 32.576V21.632H116.311V31.748C116.311 34.868 117.619 36.428 120.235 36.428C121.579 36.428 122.659 35.996 123.475 35.132C124.291 34.244 124.699 32.936 124.699 31.208V21.632H130.315Z" fill="#161616"/>
<path d="M148.01 40.064C147.458 40.472 146.774 40.784 145.958 41C145.166 41.192 144.326 41.288 143.438 41.288C141.134 41.288 139.346 40.7 138.074 39.524C136.826 38.348 136.202 36.62 136.202 34.34V26.384H133.214V22.064H136.202V17.348H141.818V22.064H146.642V26.384H141.818V34.268C141.818 35.084 142.022 35.72 142.43 36.176C142.862 36.608 143.462 36.824 144.23 36.824C145.118 36.824 145.874 36.584 146.498 36.104L148.01 40.064Z" fill="#161616"/>
<path d="M159.781 41.288C157.741 41.288 155.905 40.868 154.273 40.028C152.665 39.164 151.405 37.976 150.493 36.464C149.581 34.952 149.125 33.236 149.125 31.316C149.125 29.396 149.581 27.68 150.493 26.168C151.405 24.656 152.665 23.48 154.273 22.64C155.905 21.776 157.741 21.344 159.781 21.344C161.821 21.344 163.645 21.776 165.253 22.64C166.861 23.48 168.121 24.656 169.033 26.168C169.945 27.68 170.401 29.396 170.401 31.316C170.401 33.236 169.945 34.952 169.033 36.464C168.121 37.976 166.861 39.164 165.253 40.028C163.645 40.868 161.821 41.288 159.781 41.288ZM159.781 36.68C161.221 36.68 162.397 36.2 163.309 35.24C164.245 34.256 164.713 32.948 164.713 31.316C164.713 29.684 164.245 28.388 163.309 27.428C162.397 26.444 161.221 25.952 159.781 25.952C158.341 25.952 157.153 26.444 156.217 27.428C155.281 28.388 154.813 29.684 154.813 31.316C154.813 32.948 155.281 34.256 156.217 35.24C157.153 36.2 158.341 36.68 159.781 36.68Z" fill="#161616"/>
<path d="M200.802 41L195.942 33.98H195.654H190.578V41H184.746V15.8H195.654C197.886 15.8 199.818 16.172 201.45 16.916C203.106 17.66 204.378 18.716 205.266 20.084C206.154 21.452 206.598 23.072 206.598 24.944C206.598 26.816 206.142 28.436 205.23 29.804C204.342 31.148 203.07 32.18 201.414 32.9L207.066 41H200.802ZM200.694 24.944C200.694 23.528 200.238 22.448 199.326 21.704C198.414 20.936 197.082 20.552 195.33 20.552H190.578V29.336H195.33C197.082 29.336 198.414 28.952 199.326 28.184C200.238 27.416 200.694 26.336 200.694 24.944Z" fill="#161616"/>
<path d="M220.038 41.288C217.998 41.288 216.163 40.868 214.531 40.028C212.923 39.164 211.663 37.976 210.751 36.464C209.839 34.952 209.382 33.236 209.382 31.316C209.382 29.396 209.839 27.68 210.751 26.168C211.663 24.656 212.923 23.48 214.531 22.64C216.163 21.776 217.998 21.344 220.038 21.344C222.078 21.344 223.902 21.776 225.51 22.64C227.118 23.48 228.378 24.656 229.29 26.168C230.202 27.68 230.658 29.396 230.658 31.316C230.658 33.236 230.202 34.952 229.29 36.464C228.378 37.976 227.118 39.164 225.51 40.028C223.902 40.868 222.078 41.288 220.038 41.288ZM220.038 36.68C221.478 36.68 222.654 36.2 223.566 35.24C224.502 34.256 224.971 32.948 224.971 31.316C224.971 29.684 224.502 28.388 223.566 27.428C222.654 26.444 221.478 25.952 220.038 25.952C218.598 25.952 217.411 26.444 216.475 27.428C215.539 28.388 215.07 29.684 215.07 31.316C215.07 32.948 215.539 34.256 216.475 35.24C217.411 36.2 218.598 36.68 220.038 36.68Z" fill="#161616"/>
<path d="M240.928 41.288C239.32 41.288 237.748 41.096 236.212 40.712C234.676 40.304 233.452 39.8 232.54 39.2L234.412 35.168C235.276 35.72 236.32 36.176 237.544 36.536C238.768 36.872 239.968 37.04 241.144 37.04C243.52 37.04 244.708 36.452 244.708 35.276C244.708 34.724 244.384 34.328 243.736 34.088C243.088 33.848 242.092 33.644 240.748 33.476C239.164 33.236 237.856 32.96 236.824 32.648C235.792 32.336 234.892 31.784 234.124 30.992C233.38 30.2 233.008 29.072 233.008 27.608C233.008 26.384 233.356 25.304 234.052 24.368C234.772 23.408 235.804 22.664 237.148 22.136C238.516 21.608 240.124 21.344 241.972 21.344C243.34 21.344 244.696 21.5 246.04 21.812C247.408 22.1 248.536 22.508 249.424 23.036L247.552 27.032C245.848 26.072 243.988 25.592 241.972 25.592C240.772 25.592 239.872 25.76 239.272 26.096C238.672 26.432 238.372 26.864 238.372 27.392C238.372 27.992 238.696 28.412 239.344 28.652C239.992 28.892 241.024 29.12 242.44 29.336C244.024 29.6 245.32 29.888 246.328 30.2C247.336 30.488 248.212 31.028 248.956 31.82C249.7 32.612 250.072 33.716 250.072 35.132C250.072 36.332 249.712 37.4 248.992 38.336C248.272 39.272 247.216 40.004 245.824 40.532C244.456 41.036 242.824 41.288 240.928 41.288Z" fill="#161616"/>
<path d="M266.029 40.064C265.477 40.472 264.793 40.784 263.977 41C263.185 41.192 262.345 41.288 261.457 41.288C259.153 41.288 257.365 40.7 256.093 39.524C254.845 38.348 254.221 36.62 254.221 34.34V26.384H251.233V22.064H254.221V17.348H259.837V22.064H264.661V26.384H259.837V34.268C259.837 35.084 260.041 35.72 260.449 36.176C260.881 36.608 261.481 36.824 262.249 36.824C263.137 36.824 263.893 36.584 264.517 36.104L266.029 40.064Z" fill="#161616"/>
<path d="M287.556 31.388C287.556 31.46 287.52 31.964 287.448 32.9H272.796C273.06 34.1 273.684 35.048 274.668 35.744C275.652 36.44 276.876 36.788 278.34 36.788C279.348 36.788 280.236 36.644 281.004 36.356C281.796 36.044 282.528 35.564 283.2 34.916L286.188 38.156C284.364 40.244 281.7 41.288 278.196 41.288C276.012 41.288 274.08 40.868 272.4 40.028C270.72 39.164 269.424 37.976 268.512 36.464C267.6 34.952 267.144 33.236 267.144 31.316C267.144 29.42 267.588 27.716 268.476 26.204C269.388 24.668 270.624 23.48 272.184 22.64C273.768 21.776 275.532 21.344 277.476 21.344C279.372 21.344 281.088 21.752 282.624 22.568C284.16 23.384 285.36 24.56 286.224 26.096C287.112 27.608 287.556 29.372 287.556 31.388ZM277.512 25.592C276.24 25.592 275.172 25.952 274.308 26.672C273.444 27.392 272.916 28.376 272.724 29.624H282.264C282.072 28.4 281.544 27.428 280.68 26.708C279.816 25.964 278.76 25.592 277.512 25.592Z" fill="#161616"/>
<path d="M296.659 24.188C297.331 23.252 298.231 22.544 299.359 22.064C300.511 21.584 301.831 21.344 303.319 21.344V26.528C302.695 26.48 302.275 26.456 302.059 26.456C300.451 26.456 299.191 26.912 298.279 27.824C297.367 28.712 296.911 30.056 296.911 31.856V41H291.295V21.632H296.659V24.188Z" fill="#161616"/>
<path d="M306.658 21.632H312.274V41H306.658V21.632ZM309.466 18.932C308.434 18.932 307.594 18.632 306.946 18.032C306.298 17.432 305.974 16.688 305.974 15.8C305.974 14.912 306.298 14.168 306.946 13.568C307.594 12.968 308.434 12.668 309.466 12.668C310.498 12.668 311.338 12.956 311.986 13.532C312.634 14.108 312.958 14.828 312.958 15.692C312.958 16.628 312.634 17.408 311.986 18.032C311.338 18.632 310.498 18.932 309.466 18.932Z" fill="#161616"/>
<path d="M329.259 21.344C331.659 21.344 333.591 22.064 335.055 23.504C336.543 24.944 337.287 27.08 337.287 29.912V41H331.671V30.776C331.671 29.24 331.335 28.1 330.663 27.356C329.991 26.588 329.019 26.204 327.747 26.204C326.331 26.204 325.203 26.648 324.363 27.536C323.523 28.4 323.103 29.696 323.103 31.424V41H317.487V21.632H322.851V23.9C323.595 23.084 324.519 22.46 325.623 22.028C326.727 21.572 327.939 21.344 329.259 21.344Z" fill="#161616"/>
<path d="M362.568 21.632V37.76C362.568 41.312 361.644 43.952 359.796 45.68C357.948 47.408 355.248 48.272 351.696 48.272C349.824 48.272 348.048 48.044 346.368 47.588C344.688 47.132 343.296 46.472 342.192 45.608L344.424 41.576C345.24 42.248 346.272 42.776 347.52 43.16C348.768 43.568 350.016 43.772 351.264 43.772C353.208 43.772 354.636 43.328 355.548 42.44C356.484 41.576 356.952 40.256 356.952 38.48V37.652C355.488 39.26 353.448 40.064 350.832 40.064C349.056 40.064 347.424 39.68 345.936 38.912C344.472 38.12 343.308 37.016 342.444 35.6C341.58 34.184 341.148 32.552 341.148 30.704C341.148 28.856 341.58 27.224 342.444 25.808C343.308 24.392 344.472 23.3 345.936 22.532C347.424 21.74 349.056 21.344 350.832 21.344C353.64 21.344 355.776 22.268 357.24 24.116V21.632H362.568ZM351.948 35.456C353.436 35.456 354.648 35.024 355.584 34.16C356.544 33.272 357.024 32.12 357.024 30.704C357.024 29.288 356.544 28.148 355.584 27.284C354.648 26.396 353.436 25.952 351.948 25.952C350.46 25.952 349.236 26.396 348.276 27.284C347.316 28.148 346.836 29.288 346.836 30.704C346.836 32.12 347.316 33.272 348.276 34.16C349.236 35.024 350.46 35.456 351.948 35.456Z" fill="#161616"/>
<defs>
<linearGradient id="paint0_linear_9_21" x1="73.2818" y1="82.4254" x2="73.2818" y2="11.0382" gradientUnits="userSpaceOnUse">
<stop stop-color="#E31C79"/>
<stop offset="1" stop-color="#F2A900"/>
</linearGradient>
</defs>
</svg>
