<?xml version="1.0" standalone="no"?>
<!DOCTYPE svg PUBLIC "-//W3C//DTD SVG 20010904//EN"
 "http://www.w3.org/TR/2001/REC-SVG-20010904/DTD/svg10.dtd">
<svg version="1.0" xmlns="http://www.w3.org/2000/svg"
 width="260.000000pt" height="260.000000pt" viewBox="0 0 260.000000 260.000000"
 preserveAspectRatio="xMidYMid meet">
<metadata>
Created by potrace 1.11, written by Peter Selinger 2001-2013
</metadata>
<g transform="translate(0.000000,260.000000) scale(0.100000,-0.100000)"
fill="#000000" stroke="none">
<path d="M1038 2122 c-23 -3 -48 -29 -128 -135 -56 -73 -106 -139 -113 -147
-7 -8 -27 -34 -45 -58 l-34 -42 794 0 793 1 77 102 c43 57 87 113 98 125 11
11 20 26 20 32 0 5 5 10 10 10 6 0 10 4 10 9 0 6 12 23 26 38 36 39 48 63 32
64 -47 2 -1518 3 -1540 1z"/>
<path d="M267 1468 c-8 -13 -24 -34 -36 -48 -25 -30 -16 -18 -127 -165 -49
-66 -94 -126 -98 -132 -6 -10 164 -13 837 -13 l845 0 43 57 c24 32 51 65 59
74 8 10 29 36 45 59 17 23 40 53 53 66 12 14 22 27 22 30 0 3 16 26 36 50 l36
44 -850 0 -850 0 -15 -22z"/>
<path d="M508 855 c8 -13 147 -194 172 -223 11 -13 20 -26 20 -28 0 -3 11 -16
25 -30 14 -14 25 -28 25 -32 1 -4 10 -18 21 -32 l21 -25 404 0 404 -1 23 29
c12 17 77 101 145 189 67 87 122 160 122 161 0 1 -312 2 -694 2 -460 0 -692
-3 -688 -10z"/>
</g>
</svg>
